<?xml version="1.0" standalone="no"?>
<!DOCTYPE svg PUBLIC "-//W3C//DTD SVG 1.1//EN" "http://www.w3.org/Graphics/SVG/1.1/DTD/svg11.dtd" >
<svg xmlns="http://www.w3.org/2000/svg" xmlns:xlink="http://www.w3.org/1999/xlink" version="1.1">
<metadata>
Created by FontForge 20190801 at Mon Feb 21 14:52:03 2005
 By root
Copyright (c) 1990 Neufville SL, Copyright (c) 1990-2000 ParaType, Inc. All Rights Reserved. Futura is a registered trade mark of Neufville SL.
</metadata>
<defs>
<font id="FuturaFuturisC" horiz-adv-x="590" >
  <font-face 
    font-family="FuturaFuturisC"
    font-weight="400"
    font-stretch="normal"
    units-per-em="1000"
    panose-1="0 0 5 0 0 0 0 0 0 0"
    ascent="738"
    descent="-262"
    x-height="442"
    cap-height="700"
    bbox="-412 -262 1223 950"
    underline-thickness="50"
    underline-position="-200"
    unicode-range="U+0020-2122"
  />
<missing-glyph horiz-adv-x="233" 
 />
    <glyph glyph-name=".notdef" horiz-adv-x="233" 
 />
    <glyph glyph-name=".null" horiz-adv-x="0" 
 />
    <glyph glyph-name="nonmarkingreturn" horiz-adv-x="333" 
 />
    <glyph glyph-name="space" unicode=" " horiz-adv-x="233" 
 />
    <glyph glyph-name="space" unicode="&#xa0;" horiz-adv-x="233" 
 />
    <glyph glyph-name="exclam" unicode="!" horiz-adv-x="260" 
d="M181 156h-102v544h102v-544zM64 52q0 27 19.5 46.5t46.5 19.5t46.5 -19.5t19.5 -46.5t-19.5 -46.5t-46.5 -19.5t-46.5 19.5t-19.5 46.5z" />
    <glyph glyph-name="quotedbl" unicode="&#x22;" horiz-adv-x="380" 
d="M162 700l-19 -280h-76l-19 280h114zM332 700l-19 -280h-76l-19 280h114z" />
    <glyph glyph-name="numbersign" unicode="#" horiz-adv-x="628" 
d="M474 298h113l-15 -92h-113l-33 -206h-102l33 206h-122l-32 -206h-102l32 206h-113l15 92h113l18 118h-113l15 92h113l31 192h102l-31 -192h122l30 192h102l-30 -192h113l-15 -92h-113zM372 298l18 118h-122l-18 -118h122z" />
    <glyph glyph-name="dollar" unicode="$" 
d="M497 595l-86 -50q-11 26 -32 44q-31 25 -75 25q-43 0 -70.5 -22t-27.5 -62q0 -55 75 -85l70 -28q165 -66 165 -206q0 -85 -49.5 -145t-126.5 -75v-96h-78v92q-82 8 -137 70q-50 57 -59 136l106 23q2 -47 30 -89q33 -42 91 -42q54 0 84.5 36t30.5 82q0 47 -28 73.5
t-72 45.5l-67 29q-65 28 -104 69t-39 108q0 70 46.5 121t117.5 60v90h78v-89q64 -10 103 -45q35 -31 54 -70z" />
    <glyph glyph-name="percent" unicode="%" horiz-adv-x="846" 
d="M198 19l400 693l50 -31l-400 -693zM202 378q-62 0 -115.5 44.5t-53.5 119.5t53.5 119.5t115.5 44.5q69 0 119 -48.5t50 -115.5t-50 -115.5t-119 -48.5zM202 632q-40 0 -63.5 -29t-23.5 -61q0 -33 23.5 -61.5t63.5 -28.5q39 0 63 28.5t24 61.5t-24 61.5t-63 28.5zM644 -6
q-62 0 -115.5 44.5t-53.5 119.5t53.5 119.5t115.5 44.5q69 0 119 -48.5t50 -115.5t-50 -115.5t-119 -48.5zM644 248q-40 0 -63.5 -29t-23.5 -61q0 -33 23.5 -61.5t63.5 -28.5q39 0 63 28.5t24 61.5t-24 61.5t-63 28.5z" />
    <glyph glyph-name="ampersand" unicode="&#x26;" horiz-adv-x="676" 
d="M561 328l68 -71l-82 -95l129 -162h-130l-70 86q-26 -28 -59 -51q-70 -49 -153 -49q-96 0 -153 56.5t-57 144.5q0 36 9 66t27 52t31 34t34 28q34 24 56 39q-70 72 -70 145q0 66 43 114.5t123 48.5q79 0 123.5 -46t44.5 -107q0 -53 -30 -91q-33 -40 -87 -81l123 -151z
M412 162l-138 168q-48 -26 -77 -58q-37 -40 -37 -89q0 -40 28 -73.5t80 -33.5q40 0 79 28q34 24 65 58zM296 464l39 28q42 30 42 69q0 25 -17.5 44t-52.5 19q-23 0 -38 -7.5t-21 -20t-7.5 -19.5t-1.5 -14q0 -30 25 -61z" />
    <glyph glyph-name="quotesingle" unicode="'" horiz-adv-x="210" 
d="M162 700l-19 -280h-76l-19 280h114z" />
    <glyph glyph-name="parenleft" unicode="(" horiz-adv-x="334" 
d="M274 -187l-95 -37q-41 83 -65 186q-34 144 -34 298t34 298q25 102 65 185l95 -36q-39 -94 -57 -167q-31 -124 -31 -280q0 -158 31 -281q28 -97 57 -166z" />
    <glyph glyph-name="parenright" unicode=")" horiz-adv-x="334" 
d="M60 707l95 36q40 -83 65 -185q34 -144 34 -298t-34 -298q-24 -103 -65 -186l-95 37q29 69 57 166q31 123 31 281q0 156 -31 280q-18 73 -57 167z" />
    <glyph glyph-name="asterisk" unicode="*" horiz-adv-x="586" 
d="M140 657l114 -44l-7 122h92l-7 -122l114 44l29 -86l-119 -31l78 -96l-74 -52l-67 103l-67 -103l-74 52l78 96l-119 31z" />
    <glyph glyph-name="plus" unicode="+" horiz-adv-x="522" 
d="M33 306v94h179v178h98v-178h179v-94h-179v-178h-98v178h-179z" />
    <glyph glyph-name="comma" unicode="," horiz-adv-x="260" 
d="M-4 -134l106 264l94 -34l-130 -260z" />
    <glyph glyph-name="hyphen" unicode="-" horiz-adv-x="332" 
d="M40 170v106h252v-106h-252z" />
    <glyph glyph-name="hyphen" unicode="&#xad;" horiz-adv-x="332" 
d="M40 170v106h252v-106h-252z" />
    <glyph glyph-name="period" unicode="." horiz-adv-x="260" 
d="M64 52q0 27 19.5 46.5t46.5 19.5t46.5 -19.5t19.5 -46.5t-19.5 -46.5t-46.5 -19.5t-46.5 19.5t-19.5 46.5z" />
    <glyph glyph-name="slash" unicode="/" horiz-adv-x="562" 
d="M0 -184l400 928l84 -38l-400 -928z" />
    <glyph glyph-name="zero" unicode="0" 
d="M295 -14q-91 0 -158 76q-91 103 -91 287q0 186 91 289q66 76 158 76t158 -76q91 -103 91 -289q0 -184 -91 -287q-67 -76 -158 -76zM295 618q-56 0 -94 -58q-49 -74 -49 -209q0 -136 49 -211q38 -58 94 -58t94 58q49 75 49 211q0 135 -49 209q-38 58 -94 58z" />
    <glyph glyph-name="one" unicode="1" 
d="M260 0v602h-120l58 98h170v-700h-108z" />
    <glyph glyph-name="two" unicode="2" 
d="M504 96v-96h-470l244 294q61 74 84 109q34 51 34 99t-31 82t-84 34q-50 0 -85.5 -35t-37.5 -93h-104q4 89 59 153q60 71 167 71q105 0 163.5 -61.5t58.5 -151.5q0 -72 -50 -147q-19 -29 -100 -126l-112 -132h264z" />
    <glyph glyph-name="three" unicode="3" 
d="M173 523h-104q6 66 35 110q54 81 172 81q96 0 152 -54.5t56 -141.5q0 -96 -77 -149q89 -45 89 -160q0 -37 -10.5 -72.5t-34.5 -71t-71.5 -57.5t-111.5 -22q-85 0 -134 36.5t-69 88.5q-14 36 -17 78h104q4 -46 36 -76.5t82 -30.5q54 0 87 35t33 93q0 49 -32 81.5t-88 32.5
h-21v92h21q110 0 110 95q0 50 -28.5 78.5t-76.5 28.5q-44 0 -71.5 -25t-30.5 -70z" />
    <glyph glyph-name="four" unicode="4" 
d="M468 750v-554h74v-96h-74v-100h-102v100h-346zM206 196h160v236z" />
    <glyph glyph-name="five" unicode="5" 
d="M499 700v-96h-218l-33 -119q22 2 32 2q89 0 151 -53q79 -68 79 -190q0 -48 -15.5 -93t-46 -82.5t-82 -60t-118.5 -22.5q-146 0 -220 133l80 67q17 -40 52.5 -72t94.5 -32q72 0 110.5 44.5t38.5 111.5t-38.5 110t-103.5 43q-84 0 -127 -61h-36l110 370h290z" />
    <glyph glyph-name="six" unicode="6" 
d="M373 724l77 -58l-167 -225q18 3 35 3q84 0 148 -57t64 -166q0 -101 -63 -168t-170 -67q-101 0 -169 63t-68 165q0 82 69 177zM294 348q-56 0 -92 -37t-36 -96q0 -58 36 -95.5t93 -37.5t93 37.5t36 95.5q0 59 -36 96t-94 37z" />
    <glyph glyph-name="seven" unicode="7" 
d="M50 28l348 576h-344v96h518l-438 -724z" />
    <glyph glyph-name="eight" unicode="8" 
d="M168 364q-77 54 -77 149q0 91 59 146t145 55t145 -55t59 -146q0 -95 -77 -149q94 -49 94 -165q0 -98 -64.5 -155.5t-156.5 -57.5t-156.5 57.5t-64.5 155.5q0 116 94 165zM295 618q-47 0 -76.5 -29t-29.5 -77q0 -51 33 -78t73 -27t73 27t33 78q0 48 -29.5 77t-76.5 29z
M295 317q-46 0 -80.5 -31t-34.5 -85q0 -53 32 -86t83 -33t83 33t32 86q0 54 -34.5 85t-80.5 31z" />
    <glyph glyph-name="nine" unicode="9" 
d="M217 -24l-77 58l167 225q-15 -3 -31 -3q-84 0 -150 59.5t-66 164.5q0 100 64 167t172 67q110 0 172 -68t62 -160q0 -82 -69 -177zM297 352q56 0 91.5 36.5t35.5 96.5q0 58 -36 95.5t-93 37.5t-93 -37.5t-36 -95.5q0 -59 36 -96t95 -37z" />
    <glyph glyph-name="colon" unicode=":" horiz-adv-x="260" 
d="M64 388q0 27 19.5 46.5t46.5 19.5t46.5 -19.5t19.5 -46.5t-19.5 -46.5t-46.5 -19.5t-46.5 19.5t-19.5 46.5zM64 52q0 27 19.5 46.5t46.5 19.5t46.5 -19.5t19.5 -46.5t-19.5 -46.5t-46.5 -19.5t-46.5 19.5t-19.5 46.5z" />
    <glyph glyph-name="semicolon" unicode=";" horiz-adv-x="260" 
d="M64 388q0 27 19.5 46.5t46.5 19.5t46.5 -19.5t19.5 -46.5t-19.5 -46.5t-46.5 -19.5t-46.5 19.5t-19.5 46.5zM-4 -134l106 264l94 -34l-130 -260z" />
    <glyph glyph-name="less" unicode="&#x3c;" horiz-adv-x="522" 
d="M33 392l456 222v-102l-346 -163l346 -163v-102l-456 222v86z" />
    <glyph glyph-name="equal" unicode="=" horiz-adv-x="522" 
d="M33 400v88h456v-88h-456zM33 230v88h456v-88h-456z" />
    <glyph glyph-name="greater" unicode="&#x3e;" horiz-adv-x="522" 
d="M489 306l-456 -222v102l346 163l-346 163v102l456 -222v-86z" />
    <glyph glyph-name="question" unicode="?" horiz-adv-x="450" 
d="M160 513h-104q-2 25 -2 36q0 68 44 116.5t127 48.5q76 0 123.5 -47t47.5 -130q0 -77 -62 -120q-33 -23 -105 -50q-13 -5 -20 -8t-17.5 -10.5t-15.5 -18t-5 -24.5q0 -22 14.5 -37.5t37.5 -15.5q31 0 45 25q11 20 9 46h104q-3 -59 -28 -96q-45 -67 -131 -67
q-63 0 -109 40.5t-46 110.5q0 35 11 61t33 43t38 25t42 18q65 24 77 34q24 19 24 56q0 34 -17.5 53.5t-49.5 19.5q-67 0 -67 -75q0 -6 1 -19t1 -15zM159 52q0 27 19.5 46.5t46.5 19.5t46.5 -19.5t19.5 -46.5t-19.5 -46.5t-46.5 -19.5t-46.5 19.5t-19.5 46.5z" />
    <glyph glyph-name="at" unicode="@" horiz-adv-x="764" 
d="M494 461l11 54h72l-41 -211q-6 -32 -6 -47q0 -22 10.5 -32t22.5 -10q16 0 35 13.5t29 28.5q15 21 25 63t10 79q0 97 -67.5 173t-192.5 76q-127 0 -213.5 -88t-86.5 -216q0 -91 48 -167t131 -107q58 -21 127 -21q108 0 206 43l18 -64q-99 -41 -226 -41q-155 0 -254 85
q-118 101 -118 273q0 159 103.5 262t261.5 103q143 0 237 -83.5t94 -226.5q0 -113 -50 -179q-22 -29 -54.5 -47.5t-66.5 -18.5q-11 0 -22.5 2t-31.5 18t-25 45q-50 -71 -131 -71q-62 0 -105 44.5t-43 123.5q0 97 57 154t127 57q16 0 33 -3.5t41 -19.5t35 -44zM360 223
q46 0 79.5 40t33.5 101q0 10 -2 21t-8.5 29t-24.5 29t-44 11q-45 0 -78 -36.5t-33 -99.5q0 -45 22 -70t55 -25z" />
    <glyph glyph-name="A" unicode="A" horiz-adv-x="688" 
d="M568 0l-74 170h-297l-77 -170h-116l348 740l332 -740h-116zM240 270h212l-104 236z" />
    <glyph glyph-name="B" unicode="B" horiz-adv-x="546" 
d="M80 700h106q42 0 60.5 -1t52.5 -9.5t60 -26.5q79 -55 79 -158q0 -80 -62 -128q61 -19 91.5 -66.5t30.5 -102.5q0 -101 -70 -159q-28 -23 -67 -34.5t-60.5 -13t-59.5 -1.5h-161v700zM188 600v-201h32q114 0 114 103q0 98 -110 98h-36zM188 311v-211h64q77 0 107.5 31.5
t30.5 74.5q0 44 -30.5 74.5t-105.5 30.5h-66z" />
    <glyph glyph-name="C" unicode="C" horiz-adv-x="646" 
d="M600 662v-126q-80 78 -189 78q-113 0 -182 -75t-69 -192q0 -113 70.5 -187t180.5 -74q104 0 189 81v-128q-83 -53 -192 -53q-145 0 -248 97q-112 107 -112 264q0 167 112 274q97 93 253 93q110 0 187 -52z" />
    <glyph glyph-name="D" unicode="D" horiz-adv-x="670" 
d="M80 700h147q86 0 145.5 -13.5t114.5 -54.5q135 -101 135 -283t-141 -282q-57 -40 -115.5 -53.5t-140.5 -13.5h-145v700zM188 600v-500h45q121 0 186 50q91 69 91 199q0 61 -23.5 115.5t-66.5 86.5q-65 49 -187 49h-45z" />
    <glyph glyph-name="E" unicode="E" horiz-adv-x="518" 
d="M466 700v-100h-278v-168h270v-100h-270v-232h278v-100h-386v700h386z" />
    <glyph glyph-name="F" unicode="F" horiz-adv-x="466" 
d="M430 700v-100h-242v-168h234v-100h-234v-332h-108v700h350z" />
    <glyph glyph-name="G" unicode="G" horiz-adv-x="780" 
d="M444 264v100h288v-22q0 -135 -63 -224q-94 -132 -263 -132q-150 0 -252 102q-106 106 -106 261q0 154 100 258q102 107 264 107q119 0 213 -67q47 -34 77 -76l-76 -72q-79 115 -214 115q-110 0 -181 -75t-71 -190q0 -114 72.5 -188.5t176.5 -74.5q82 0 139 50t70 128
h-174z" />
    <glyph glyph-name="H" unicode="H" horiz-adv-x="674" 
d="M188 700v-274h298v274h108v-700h-108v326h-298v-326h-108v700h108z" />
    <glyph glyph-name="I" unicode="I" horiz-adv-x="268" 
d="M80 700h108v-700h-108v700z" />
    <glyph glyph-name="J" unicode="J" horiz-adv-x="376" 
d="M188 700h108v-453q0 -107 -26 -160q-24 -50 -67.5 -75.5t-96.5 -25.5q-70 0 -124 36l52 90q31 -26 73 -26q51 0 71 47q10 22 10 113v454z" />
    <glyph glyph-name="K" unicode="K" horiz-adv-x="610" 
d="M188 700v-279l270 279h140l-316 -317l318 -383h-142l-270 336v-336h-108v700h108z" />
    <glyph glyph-name="L" unicode="L" horiz-adv-x="408" 
d="M80 700h108v-600h204v-100h-312v700z" />
    <glyph glyph-name="M" unicode="M" horiz-adv-x="888" 
d="M170 0h-110l147 752l243 -542l246 542l132 -752h-110l-70 422l-204 -454l-201 455z" />
    <glyph glyph-name="N" unicode="N" horiz-adv-x="774" 
d="M188 0h-108v746l506 -530v484h108v-742l-506 530v-488z" />
    <glyph glyph-name="O" unicode="O" horiz-adv-x="824" 
d="M412 714q156 0 260 -105t104 -260q0 -154 -103.5 -258.5t-260.5 -104.5t-260.5 104.5t-103.5 258.5q0 155 104 260t260 105zM412 86q111 0 181.5 73.5t70.5 189.5t-70.5 190.5t-181.5 74.5t-181.5 -74.5t-70.5 -190.5t70.5 -189.5t181.5 -73.5z" />
    <glyph glyph-name="P" unicode="P" horiz-adv-x="498" 
d="M80 700h154q95 0 153 -38q87 -57 87 -170q0 -95 -68 -153q-64 -55 -171 -55h-47v-284h-108v700zM188 600v-216h47q131 0 131 109q0 107 -132 107h-46z" />
    <glyph glyph-name="Q" unicode="Q" horiz-adv-x="826" 
d="M660 -14l-51 53q-80 -53 -191 -53q-92 0 -165.5 33t-117 87t-65.5 116.5t-22 126.5q0 155 104 260t261 105q156 0 260 -105t104 -260q0 -146 -97 -250l114 -113h-134zM501 277l105 -106q59 72 59 178q0 116 -71 190.5t-181 74.5q-111 0 -182 -74.5t-71 -190.5t71 -189.5
t182 -73.5q67 0 118 29l-164 162h134z" />
    <glyph glyph-name="R" unicode="R" horiz-adv-x="556" 
d="M80 700h125q124 0 185 -41q45 -30 64 -76t19 -89q0 -74 -43 -126.5t-113 -68.5l219 -299h-130l-200 287h-18v-287h-108v700zM188 600v-221h33q14 0 26.5 1t36 7t39.5 17t29 34t13 55q0 107 -141 107h-36z" />
    <glyph glyph-name="S" unicode="S" horiz-adv-x="539" 
d="M471 595l-86 -50q-11 26 -32 44q-29 25 -73 25q-43 0 -71.5 -22t-28.5 -61q0 -56 75 -86l70 -28q166 -65 166 -207q0 -99 -64 -161.5t-163 -62.5q-103 0 -165 71q-50 57 -59 136l106 23q2 -52 30 -89q31 -41 90 -41q57 0 87 34.5t30 82.5q0 47 -28 73.5t-73 45.5l-67 29
q-143 62 -143 177q0 82 60 134t145 52q86 0 140 -48q33 -29 54 -71z" />
    <glyph glyph-name="T" unicode="T" horiz-adv-x="448" 
d="M438 600h-160v-600h-108v600h-160v100h428v-100z" />
    <glyph glyph-name="U" unicode="U" horiz-adv-x="678" 
d="M80 700h108v-422q0 -82 21 -121q17 -31 50.5 -51t79.5 -20q92 0 130 71q21 40 21 121v422h108v-450q0 -110 -65 -182q-74 -82 -194 -82t-194 82q-65 72 -65 182v450z" />
    <glyph glyph-name="V" unicode="V" horiz-adv-x="630" 
d="M4 700h116l195 -488l195 488h116l-311 -744z" />
    <glyph glyph-name="W" unicode="W" horiz-adv-x="986" 
d="M4 700h116l184 -468l189 502l183 -502l190 468h116l-313 -744l-182 495l-185 -495z" />
    <glyph glyph-name="X" unicode="X" horiz-adv-x="572" 
d="M10 0l220 365l-193 335h120l136 -237l140 237h120l-202 -335l211 -365h-120l-153 268l-159 -268h-120z" />
    <glyph glyph-name="Y" unicode="Y" horiz-adv-x="566" 
d="M229 0v302l-229 398h120l163 -282l163 282h120l-229 -398v-302h-108z" />
    <glyph glyph-name="Z" unicode="Z" horiz-adv-x="578" 
d="M548 700l-344 -600h336v-100h-510l344 600h-288v100h462z" />
    <glyph glyph-name="bracketleft" unicode="[" horiz-adv-x="326" 
d="M280 643h-90v-761h90v-92h-192v945h192v-92z" />
    <glyph glyph-name="backslash" unicode="\" horiz-adv-x="562" 
d="M562 -184l-84 -38l-400 928l84 38z" />
    <glyph glyph-name="bracketright" unicode="]" horiz-adv-x="326" 
d="M46 -118h90v761h-90v92h192v-945h-192v92z" />
    <glyph glyph-name="asciicircum" unicode="^" horiz-adv-x="524" 
d="M262 622l-136 -252h-110l180 330h132l180 -330h-110z" />
    <glyph glyph-name="underscore" unicode="_" horiz-adv-x="420" 
d="M0 -150v92h420v-92h-420z" />
    <glyph glyph-name="grave" unicode="`" horiz-adv-x="512" 
d="M250 508l-164 152l94 48l126 -164z" />
    <glyph glyph-name="a" unicode="a" horiz-adv-x="552" 
d="M388 442h102v-442h-102v46q-51 -60 -134 -60q-97 0 -155.5 70t-58.5 165t58 164t157 69q86 0 133 -64v52zM270 362q-55 0 -89.5 -41t-34.5 -102q0 -59 33.5 -100t90.5 -41t90.5 40t33.5 102q0 68 -36 105t-88 37z" />
    <glyph glyph-name="b" unicode="b" horiz-adv-x="552" 
d="M164 735v-345q47 64 133 64q99 0 157 -69t58 -164q0 -106 -63.5 -170.5t-151.5 -64.5q-81 0 -133 60v-46h-102v735h102zM283 362q-52 0 -88.5 -37.5t-36.5 -106.5q0 -61 33.5 -100.5t91.5 -39.5q56 0 89.5 41t33.5 100q0 61 -34 102t-89 41z" />
    <glyph glyph-name="c" unicode="c" horiz-adv-x="438" 
d="M406 422v-134q-21 34 -55.5 54t-72.5 20q-53 0 -92.5 -38t-39.5 -104q0 -60 35.5 -101t95.5 -41q79 0 129 75v-134q-57 -33 -122 -33q-114 0 -181 68q-63 63 -63 164q0 108 72 176q64 60 166 60q75 0 128 -32z" />
    <glyph glyph-name="d" unicode="d" horiz-adv-x="552" 
d="M388 390v345h102v-735h-102v46q-51 -60 -137 -60q-94 0 -152.5 70t-58.5 166q0 94 58 163t157 69q86 0 133 -64zM269 362q-55 0 -89 -41t-34 -103q0 -59 33.5 -99.5t89.5 -40.5q58 0 91.5 39.5t33.5 100.5q0 69 -36.5 106.5t-88.5 37.5z" />
    <glyph glyph-name="e" unicode="e" horiz-adv-x="506" 
d="M380 163l86 -48q-25 -46 -58 -75q-61 -54 -154 -54q-85 0 -149.5 60t-64.5 172q0 107 58 171.5t155 64.5q113 0 168 -81q41 -61 41 -161v-16h-316q1 -56 37.5 -87t81.5 -31q39 0 70 24q28 21 45 61zM152 280h205q-9 38 -36.5 60t-65.5 22q-37 0 -65 -22.5t-38 -59.5z" />
    <glyph glyph-name="f" unicode="f" horiz-adv-x="284" 
d="M290 350h-112v-350h-102v350h-56v92h56v140q0 92 46 133q38 33 94 33q32 0 74 -16v-104q-37 20 -66 20q-25 0 -36 -16q-10 -15 -10 -50v-140h112v-92z" />
    <glyph glyph-name="g" unicode="g" horiz-adv-x="552" 
d="M388 394v48h102v-423q0 -34 -1 -52.5t-11 -51.5t-30 -58q-63 -81 -178 -81q-80 0 -138.5 41.5t-77.5 121.5h102q25 -71 115 -71q38 0 63.5 13.5t36 35.5t14 39t3.5 35v58q-52 -63 -134 -63q-97 0 -155.5 69.5t-58.5 165.5q0 95 58 164t158 69q82 0 132 -60zM269 362
q-55 0 -89 -41t-34 -100q0 -61 33.5 -102t89.5 -41q58 0 91.5 39.5t33.5 100.5q0 69 -36.5 106.5t-88.5 37.5z" />
    <glyph glyph-name="h" unicode="h" horiz-adv-x="504" 
d="M62 0v735h102v-331q46 50 119 50q91 0 131 -60q28 -41 28 -123v-271h-102v261q0 21 -0.5 29.5t-5 22.5t-14.5 25q-20 24 -59 24q-51 0 -76 -38q-21 -31 -21 -111v-213h-102z" />
    <glyph glyph-name="i" unicode="i" horiz-adv-x="226" 
d="M62 442h102v-442h-102v442zM47 624q0 27 19.5 46.5t46.5 19.5t46.5 -19.5t19.5 -46.5t-19.5 -46.5t-46.5 -19.5t-46.5 19.5t-19.5 46.5z" />
    <glyph glyph-name="j" unicode="j" horiz-adv-x="226" 
d="M62 442h102v-652h-102v652zM47 624q0 27 19.5 46.5t46.5 19.5t46.5 -19.5t19.5 -46.5t-19.5 -46.5t-46.5 -19.5t-46.5 19.5t-19.5 46.5z" />
    <glyph glyph-name="k" unicode="k" horiz-adv-x="460" 
d="M62 735h102v-445l146 152h134l-189 -184l203 -258h-130l-164 212v-212h-102v735z" />
    <glyph glyph-name="l" unicode="l" horiz-adv-x="226" 
d="M62 735h102v-735h-102v735z" />
    <glyph glyph-name="m" unicode="m" horiz-adv-x="730" 
d="M62 0v442h102v-41q42 53 110 53q79 0 114 -66q43 66 131 66q85 0 126 -70q23 -38 23 -111v-273h-102v243q0 52 -9 79q-16 40 -59 40q-41 0 -62 -34q-20 -30 -20 -100v-228h-102v243q0 53 -10 79q-15 40 -59 40q-39 0 -62 -34q-19 -29 -19 -100v-228h-102z" />
    <glyph glyph-name="n" unicode="n" horiz-adv-x="504" 
d="M62 0v442h102v-41q46 53 121 53q89 0 130 -60q27 -40 27 -123v-271h-102v246q0 20 -0.5 29t-4.5 29t-12 30t-24.5 19t-40.5 9q-25 0 -43.5 -9.5t-28 -23t-15 -35.5t-6.5 -39.5t-1 -42.5v-212h-102z" />
    <glyph glyph-name="o" unicode="o" horiz-adv-x="552" 
d="M276 454q101 0 168.5 -66.5t67.5 -167.5t-67.5 -167.5t-168.5 -66.5t-168.5 66.5t-67.5 167.5t67.5 167.5t168.5 66.5zM276 78q53 0 91.5 35.5t38.5 105.5q0 72 -38.5 107.5t-91.5 35.5t-91.5 -35.5t-38.5 -107.5q0 -70 38.5 -105.5t91.5 -35.5z" />
    <glyph glyph-name="p" unicode="p" horiz-adv-x="552" 
d="M164 442v-48q50 60 134 60q89 0 151.5 -64t62.5 -168t-65 -170t-148 -66q-17 0 -36 4t-48.5 19.5t-50.5 41.5v-261h-102v652h102zM283 362q-51 0 -88 -38t-37 -105q0 -60 33 -100.5t92 -40.5q56 0 89.5 41t33.5 102q0 66 -36.5 103.5t-86.5 37.5z" />
    <glyph glyph-name="q" unicode="q" horiz-adv-x="552" 
d="M388 394v48h102v-652h-102v259q-50 -63 -136 -63q-96 0 -154 69.5t-58 165.5q0 95 58 164t157 69q85 0 133 -60zM269 362q-55 0 -89 -40.5t-34 -101.5q0 -62 33.5 -102t89.5 -40q53 0 89 36.5t36 103.5q0 69 -36.5 106.5t-88.5 37.5z" />
    <glyph glyph-name="r" unicode="r" horiz-adv-x="346" 
d="M62 0v442h102v-40q42 52 105 52q45 0 83 -26l-46 -93q-25 21 -58 21q-44 0 -66 -35q-18 -29 -18 -91v-230h-102z" />
    <glyph glyph-name="s" unicode="s" horiz-adv-x="374" 
d="M320 367l-85 -45q-13 40 -49 40q-34 0 -34 -29q0 -12 7.5 -21t18 -15t33.5 -17q58 -25 84 -45q53 -39 53 -99q0 -70 -50 -110t-111 -40q-49 0 -91.5 28t-61.5 82l86 39q18 -57 73 -57q24 0 36.5 13t12.5 35q0 19 -10 31t-36 25q-6 3 -39.5 18.5t-48.5 24.5
q-27 17 -39.5 39t-12.5 58q0 56 36 94t102 38q89 0 126 -87z" />
    <glyph glyph-name="t" unicode="t" horiz-adv-x="252" 
d="M248 350h-78v-350h-102v350h-44v92h44v158h102v-158h78v-92z" />
    <glyph glyph-name="u" unicode="u" horiz-adv-x="502" 
d="M62 442h102v-254q0 -56 19 -80q23 -30 68 -30t68 30q19 24 19 80v254h102v-256q0 -48 -8.5 -81.5t-38.5 -63.5q-53 -55 -144 -55q-86 0 -140 55q-30 30 -38.5 63.5t-8.5 81.5v256z" />
    <glyph glyph-name="v" unicode="v" horiz-adv-x="470" 
d="M6 442h116l113 -252l113 252h116l-229 -472z" />
    <glyph glyph-name="w" unicode="w" horiz-adv-x="720" 
d="M360 252l-124 -282l-230 472h116l114 -252l124 290l124 -290l114 252h116l-230 -472z" />
    <glyph glyph-name="x" unicode="x" horiz-adv-x="520" 
d="M263 165l-131 -165h-126l195 239l-157 203h122l97 -129l99 129h126l-163 -203l189 -239h-124z" />
    <glyph glyph-name="y" unicode="y" horiz-adv-x="506" 
d="M49 -210l154 292l-197 360h124l130 -249l124 249h116l-335 -652h-116z" />
    <glyph glyph-name="z" unicode="z" horiz-adv-x="502" 
d="M494 442l-284 -348h262v-94h-464l286 347h-226v95h426z" />
    <glyph glyph-name="braceleft" unicode="{" horiz-adv-x="512" 
d="M295 542v-155q0 -53 -12 -78q-7 -14 -20 -26.5t-21 -17t-12 -5.5q4 -1 12 -5.5t21 -17t20 -26.5q12 -25 12 -78v-155q0 -49 18 -67q17 -17 75 -17h8v-88h-49q-74 0 -108 25q-46 33 -46 120v180q0 75 -59 87v84q59 12 59 87v180q0 87 46 120q34 25 108 25h49v-88h-8
q-58 0 -75 -17q-18 -18 -18 -67z" />
    <glyph glyph-name="bar" unicode="|" horiz-adv-x="504" 
d="M202 -262v1049h100v-1049h-100z" />
    <glyph glyph-name="braceright" unicode="}" horiz-adv-x="512" 
d="M235 -22v155q0 53 12 78q7 14 20 26.5t21 17t12 5.5q-4 1 -12 5.5t-21 17t-20 26.5q-12 25 -12 78v155q0 49 -18 67q-17 17 -75 17h-8v88h49q74 0 108 -25q46 -33 46 -120v-180q0 -75 59 -87v-84q-59 -12 -59 -87v-180q0 -87 -46 -120q-34 -25 -108 -25h-49v88h8
q58 0 75 17q18 18 18 67z" />
    <glyph glyph-name="asciitilde" unicode="~" horiz-adv-x="692" 
d="M540 437l60 -34q-26 -64 -69 -98q-37 -29 -87 -29q-37 0 -118 33q-69 28 -91 28q-31 0 -54 -23q-19 -19 -30 -48l-59 38q25 57 53 87q40 44 96 44q45 0 115 -32q64 -29 98 -29q31 0 52 18q18 15 34 45z" />
    <glyph glyph-name="currency" unicode="&#xa4;" horiz-adv-x="698" 
d="M95 693l104 -104q65 50 150 50t150 -50l104 104l57 -57l-104 -104q47 -61 47 -147q0 -85 -47 -146l104 -104l-57 -57l-104 104q-62 -51 -150 -51t-150 51l-104 -104l-57 57l104 104q-47 61 -47 146q0 86 47 147l-104 104zM349 221q68 0 114 46.5t46 117.5t-46 117.5
t-114 46.5t-114 -46.5t-46 -117.5t46 -117.5t114 -46.5z" />
    <glyph glyph-name="brokenbar" unicode="&#xa6;" horiz-adv-x="504" 
d="M202 409v378h100v-378h-100zM202 -262v377h100v-377h-100z" />
    <glyph glyph-name="section" unicode="&#xa7;" horiz-adv-x="588" 
d="M504 534h-100q5 40 -17 76q-26 42 -77 42q-47 0 -73.5 -29.5t-26.5 -67.5q0 -34 20 -52t55 -32q16 -6 44 -15.5t43 -15t35 -16.5t37 -24q60 -49 60 -131q0 -58 -27.5 -99t-71.5 -63q79 -39 79 -137q0 -88 -56 -139.5t-142 -51.5q-63 0 -110 27.5t-72 79.5q-21 46 -20 97
h100q-2 -35 17 -64q29 -44 85 -44q48 0 72 27.5t24 66.5q0 38 -32 65q-23 20 -94 43q-77 28 -108 53q-58 48 -58 137q0 54 26 96t75 62q-83 45 -83 137q0 83 56.5 134.5t144.5 51.5q112 0 163 -81q35 -57 32 -133zM297 371q-38 0 -69.5 -27t-31.5 -76q0 -45 28.5 -74
t72.5 -29t72.5 29.5t28.5 73.5q0 48 -31 75.5t-70 27.5z" />
    <glyph glyph-name="copyright" unicode="&#xa9;" horiz-adv-x="792" 
d="M396 714q156 0 259.5 -104.5t103.5 -260.5t-103.5 -259.5t-259.5 -103.5t-259.5 103.5t-103.5 259.5t103.5 260.5t259.5 104.5zM396 660q-132 0 -217.5 -89t-85.5 -222q0 -132 85.5 -220.5t217.5 -88.5t217.5 88.5t85.5 220.5q0 133 -85.5 222t-217.5 89zM536 535v-91
q-57 52 -124 52q-63 0 -104.5 -42t-41.5 -106t41 -104t106 -40t123 53v-92q-59 -33 -124 -33q-97 0 -161.5 61.5t-64.5 154.5q0 96 65 158t165 62q63 0 120 -33z" />
    <glyph glyph-name="guillemotleft" unicode="&#xab;" horiz-adv-x="530" 
d="M144 228l136 -178l-68 -48l-172 226l172 226l68 -48zM340 228l136 -178l-68 -48l-172 226l172 226l68 -48z" />
    <glyph glyph-name="logicalnot" unicode="&#xac;" horiz-adv-x="522" 
d="M489 0h-102v188h-354v92h456v-280z" />
    <glyph glyph-name="registered" unicode="&#xae;" horiz-adv-x="792" 
d="M396 714q156 0 259.5 -104.5t103.5 -260.5t-103.5 -259.5t-259.5 -103.5t-259.5 103.5t-103.5 259.5t103.5 260.5t259.5 104.5zM396 660q-132 0 -217.5 -89t-85.5 -222q0 -132 85.5 -220.5t217.5 -88.5t217.5 88.5t85.5 220.5q0 133 -85.5 222t-217.5 89zM257 561h108
q150 0 150 -127q0 -47 -25 -77.5t-67 -38.5l140 -177h-90l-124 166h-20v-166h-72v420zM329 495v-122h27q87 0 87 61t-85 61h-29z" />
    <glyph glyph-name="degree" unicode="&#xb0;" horiz-adv-x="512" 
d="M104 548q0 64 44 108t108 44t108 -44t44 -108t-44 -108t-108 -44t-108 44t-44 108zM168 548q0 -40 25 -66t63 -26t63 26t25 66t-25 66t-63 26t-63 -26t-25 -66z" />
    <glyph glyph-name="plusminus" unicode="&#xb1;" horiz-adv-x="522" 
d="M33 367v94h179v171h98v-171h179v-94h-179v-171h-98v171h-179zM33 62v94h456v-94h-456z" />
    <glyph glyph-name="mu" unicode="&#xb5;" horiz-adv-x="544" 
d="M164 -180h-102v622h102v-215q0 -59 19 -96q28 -53 88 -53q55 0 87 54q22 38 22 101v209h102v-442h-102v77q-13 -46 -46.5 -68.5t-65.5 -22.5q-30 0 -59.5 19.5t-44.5 54.5v-240z" />
    <glyph glyph-name="mu" unicode="&#x3bc;" horiz-adv-x="544" 
d="M164 -180h-102v622h102v-215q0 -59 19 -96q28 -53 88 -53q55 0 87 54q22 38 22 101v209h102v-442h-102v77q-13 -46 -46.5 -68.5t-65.5 -22.5q-30 0 -59.5 19.5t-44.5 54.5v-240z" />
    <glyph glyph-name="paragraph" unicode="&#xb6;" horiz-adv-x="642" 
d="M313 -102h-86v435h-14q-85 0 -137 49.5t-52 130.5q0 61 29.5 106t84.5 65q46 16 120 16h312v-80h-69v-722h-86v722h-102v-722z" />
    <glyph glyph-name="periodcentered" unicode="&#xb7;" horiz-adv-x="233" 
d="M34 357q0 34 24 58t58 24t58 -24t24 -58q0 -31 -22 -56.5t-60 -25.5t-60 25.5t-22 56.5z" />
    <glyph glyph-name="periodcentered" unicode="&#x2219;" horiz-adv-x="233" 
d="M34 357q0 34 24 58t58 24t58 -24t24 -58q0 -31 -22 -56.5t-60 -25.5t-60 25.5t-22 56.5z" />
    <glyph glyph-name="guillemotright" unicode="&#xbb;" horiz-adv-x="530" 
d="M386 228l-136 178l68 48l172 -226l-172 -226l-68 48zM190 228l-136 178l68 48l172 -226l-172 -226l-68 48z" />
    <glyph glyph-name="afii10023" unicode="&#x401;" horiz-adv-x="518" 
d="M466 700v-100h-278v-168h270v-100h-270v-232h278v-100h-386v700h386zM104 834q0 27 19.5 46.5t46.5 19.5t46.5 -19.5t19.5 -46.5t-19.5 -46.5t-46.5 -19.5t-46.5 19.5t-19.5 46.5zM312 834q0 27 19.5 46.5t46.5 19.5t46.5 -19.5t19.5 -46.5t-19.5 -46.5t-46.5 -19.5
t-46.5 19.5t-19.5 46.5z" />
    <glyph glyph-name="afii10051" unicode="&#x402;" horiz-adv-x="730" 
d="M510 600h-232v-187q64 8 135 8q107 0 167 -33q102 -56 102 -189q0 -97 -58.5 -155t-149.5 -58q-68 0 -134 30l25 100q54 -30 110 -30q44 0 71.5 30t27.5 80q0 77 -62 107q-38 18 -104 18q-63 0 -130 -8v-313h-108v600h-160v100h500v-100z" />
    <glyph glyph-name="afii10052" unicode="&#x403;" horiz-adv-x="444" 
d="M430 700v-100h-242v-600h-108v700h350zM236 762l-50 40l146 148l90 -62z" />
    <glyph glyph-name="afii10053" unicode="&#x404;" horiz-adv-x="646" 
d="M600 662v-126q-81 78 -190 78q-120 0 -185 -74q-47 -53 -60 -131h341v-100h-344q5 -84 63 -146q71 -77 186 -77q107 0 189 79v-126q-83 -53 -192 -53q-145 0 -248 97q-112 106 -112 266q0 167 112 273q99 92 253 92q110 0 187 -52z" />
    <glyph glyph-name="afii10054" unicode="&#x405;" horiz-adv-x="539" 
d="M471 595l-86 -50q-11 26 -32 44q-29 25 -73 25q-43 0 -71.5 -22t-28.5 -61q0 -56 75 -86l70 -28q166 -65 166 -207q0 -99 -64 -161.5t-163 -62.5q-103 0 -165 71q-50 57 -59 136l106 23q2 -52 30 -89q31 -41 90 -41q57 0 87 34.5t30 82.5q0 47 -28 73.5t-73 45.5l-67 29
q-143 62 -143 177q0 82 60 134t145 52q86 0 140 -48q33 -29 54 -71z" />
    <glyph glyph-name="afii10055" unicode="&#x406;" horiz-adv-x="268" 
d="M80 700h108v-700h-108v700z" />
    <glyph glyph-name="afii10056" unicode="&#x407;" horiz-adv-x="268" 
d="M80 700h108v-700h-108v700zM-3 834q0 24 17 41t41 17t41 -17t17 -41t-17 -41t-41 -17t-41 17t-17 41zM155 834q0 24 17 41t41 17t41 -17t17 -41t-17 -41t-41 -17t-41 17t-17 41z" />
    <glyph glyph-name="afii10057" unicode="&#x408;" horiz-adv-x="376" 
d="M188 700h108v-453q0 -107 -26 -160q-24 -50 -67.5 -75.5t-96.5 -25.5q-70 0 -124 36l52 90q31 -26 73 -26q51 0 71 47q10 22 10 113v454z" />
    <glyph glyph-name="afii10058" unicode="&#x409;" horiz-adv-x="942" 
d="M490 0v600h-231v-349q0 -76 -13 -127t-58 -88q-50 -42 -123 -42q-29 0 -51 6v100q24 -6 35 -6q42 0 67 23q35 33 35 166v417h447v-282h78q112 0 176 -56q66 -58 66 -153q0 -46 -20.5 -93t-66.5 -78q-56 -38 -153 -38h-188zM598 318v-218h74q138 0 138 107q0 16 -4 31.5
t-16.5 35.5t-42 32t-73.5 12h-76z" />
    <glyph glyph-name="afii10059" unicode="&#x40a;" horiz-adv-x="938" 
d="M486 0v318h-298v-318h-108v700h108v-282h298v282h108v-282h78q112 0 176 -56q66 -58 66 -153q0 -46 -20.5 -93t-66.5 -78q-56 -38 -153 -38h-188zM594 318v-218h74q138 0 138 107q0 16 -4 31.5t-16.5 35.5t-42 32t-73.5 12h-76z" />
    <glyph glyph-name="afii10060" unicode="&#x40b;" horiz-adv-x="721" 
d="M511 600h-232v-187q66 7 135 7q123 0 178 -43q69 -54 69 -170v-207h-108v191q0 24 -1 37t-10 35t-26 35q-28 22 -112 22q-60 0 -125 -7v-313h-108v600h-161v100h501v-100z" />
    <glyph glyph-name="afii10061" unicode="&#x40c;" horiz-adv-x="610" 
d="M188 700v-279l270 279h140l-316 -317l318 -383h-142l-270 336v-336h-108v700h108zM279 762l-50 40l146 148l90 -62z" />
    <glyph glyph-name="afii10062" unicode="&#x40e;" horiz-adv-x="598" 
d="M6 700h130l183 -363l161 363h112l-316 -700h-112l94 209zM135 873l84 37q8 -28 32.5 -43t56.5 -15t56.5 15t32.5 43l84 -37q-21 -49 -65.5 -78t-107.5 -29t-107.5 29t-65.5 78z" />
    <glyph glyph-name="afii10145" unicode="&#x40f;" horiz-adv-x="664" 
d="M80 0v700h108v-600h288v600h108v-700h-202v-190h-100v190h-202z" />
    <glyph glyph-name="afii10017" unicode="&#x410;" horiz-adv-x="688" 
d="M568 0l-74 170h-297l-77 -170h-116l348 740l332 -740h-116zM240 270h212l-104 236z" />
    <glyph glyph-name="afii10018" unicode="&#x411;" horiz-adv-x="546" 
d="M80 0v700h351v-100h-243v-182h68q113 0 176 -56q66 -59 66 -154q0 -46 -20.5 -92.5t-66.5 -77.5q-56 -38 -153 -38h-178zM188 318v-218h64q138 0 138 107q0 16 -4 31.5t-16.5 35.5t-42 32t-73.5 12h-66z" />
    <glyph glyph-name="afii10019" unicode="&#x412;" horiz-adv-x="546" 
d="M80 700h106q42 0 60.5 -1t52.5 -9.5t60 -26.5q79 -55 79 -158q0 -80 -62 -128q61 -19 91.5 -66.5t30.5 -102.5q0 -101 -70 -159q-28 -23 -67 -34.5t-60.5 -13t-59.5 -1.5h-161v700zM188 600v-201h32q114 0 114 103q0 98 -110 98h-36zM188 311v-211h64q77 0 107.5 31.5
t30.5 74.5q0 44 -30.5 74.5t-105.5 30.5h-66z" />
    <glyph glyph-name="afii10020" unicode="&#x413;" horiz-adv-x="444" 
d="M430 700v-100h-242v-600h-108v700h350z" />
    <glyph glyph-name="afii10021" unicode="&#x414;" horiz-adv-x="680" 
d="M150 700h438v-600h78v-258h-100v158h-452v-158h-100v258q36 1 65 26.5t46 68.5q25 65 25 184v321zM258 600v-222q0 -127 -25 -195q-19 -51 -55 -83h302v500h-222z" />
    <glyph glyph-name="afii10022" unicode="&#x415;" horiz-adv-x="518" 
d="M466 700v-100h-278v-168h270v-100h-270v-232h278v-100h-386v700h386z" />
    <glyph glyph-name="afii10024" unicode="&#x416;" horiz-adv-x="888" 
d="M498 700v-286l249 286h130l-288 -321l295 -379h-134l-252 330v-330h-108v330l-252 -330h-134l295 379l-288 321h130l249 -286v286h108z" />
    <glyph glyph-name="afii10025" unicode="&#x417;" horiz-adv-x="594" 
d="M149 543l-71 68q46 54 95.5 78.5t116.5 24.5q95 0 154 -50q58 -49 58 -131q0 -98 -86 -148q64 -17 97 -65t33 -113q0 -114 -91 -174q-72 -47 -165 -47q-183 0 -264 169l94 49q15 -38 40 -64t53.5 -36.5t47.5 -14t38 -3.5q53 0 90 23q49 30 49 91q0 120 -165 120h-63v100
h63q56 0 90.5 28t34.5 77q0 38 -24 61q-29 28 -83 28q-89 0 -142 -71z" />
    <glyph glyph-name="afii10026" unicode="&#x418;" horiz-adv-x="740" 
d="M552 0v472l-472 -502v730h108v-472l472 502v-730h-108z" />
    <glyph glyph-name="afii10027" unicode="&#x419;" horiz-adv-x="740" 
d="M552 0v472l-472 -502v730h108v-472l472 502v-730h-108zM197 873l84 37q8 -28 32.5 -43t56.5 -15t56.5 15t32.5 43l84 -37q-21 -53 -69 -80t-104 -27t-104 27t-69 80z" />
    <glyph glyph-name="afii10028" unicode="&#x41a;" horiz-adv-x="610" 
d="M188 700v-279l270 279h140l-316 -317l318 -383h-142l-270 336v-336h-108v700h108z" />
    <glyph glyph-name="afii10029" unicode="&#x41b;" horiz-adv-x="678" 
d="M151 700h447v-700h-108v600h-231v-349q0 -76 -13 -127t-58 -88q-50 -42 -123 -42q-29 0 -51 6v100q24 -6 35 -6q42 0 67 23q35 33 35 166v417z" />
    <glyph glyph-name="afii10030" unicode="&#x41c;" horiz-adv-x="888" 
d="M170 0h-110l147 752l243 -542l246 542l132 -752h-110l-70 422l-204 -454l-201 455z" />
    <glyph glyph-name="afii10031" unicode="&#x41d;" horiz-adv-x="674" 
d="M188 700v-274h298v274h108v-700h-108v326h-298v-326h-108v700h108z" />
    <glyph glyph-name="afii10032" unicode="&#x41e;" horiz-adv-x="824" 
d="M412 714q156 0 260 -105t104 -260q0 -154 -103.5 -258.5t-260.5 -104.5t-260.5 104.5t-103.5 258.5q0 155 104 260t260 105zM412 86q111 0 181.5 73.5t70.5 189.5t-70.5 190.5t-181.5 74.5t-181.5 -74.5t-70.5 -190.5t70.5 -189.5t181.5 -73.5z" />
    <glyph glyph-name="afii10033" unicode="&#x41f;" horiz-adv-x="674" 
d="M80 700h514v-700h-108v600h-298v-600h-108v700z" />
    <glyph glyph-name="afii10034" unicode="&#x420;" horiz-adv-x="498" 
d="M80 700h154q95 0 153 -38q87 -57 87 -170q0 -95 -68 -153q-64 -55 -171 -55h-47v-284h-108v700zM188 600v-216h47q131 0 131 109q0 107 -132 107h-46z" />
    <glyph glyph-name="afii10035" unicode="&#x421;" horiz-adv-x="646" 
d="M600 662v-126q-80 78 -189 78q-113 0 -182 -75t-69 -192q0 -113 70.5 -187t180.5 -74q104 0 189 81v-128q-83 -53 -192 -53q-145 0 -248 97q-112 107 -112 264q0 167 112 274q97 93 253 93q110 0 187 -52z" />
    <glyph glyph-name="afii10036" unicode="&#x422;" horiz-adv-x="448" 
d="M438 600h-160v-600h-108v600h-160v100h428v-100z" />
    <glyph glyph-name="afii10037" unicode="&#x423;" horiz-adv-x="598" 
d="M6 700h130l183 -363l161 363h112l-316 -700h-112l94 209z" />
    <glyph glyph-name="afii10038" unicode="&#x424;" horiz-adv-x="862" 
d="M377 0v99h-18q-156 0 -233.5 76t-77.5 197q0 55 15.5 99.5t38 72t55.5 48t60.5 30t61 15t49 6.5t31.5 1h18v84h108v-84h18q16 0 31.5 -1t49 -6.5t61 -15t60.5 -30t55.5 -48t38 -72t15.5 -99.5q0 -121 -77.5 -197t-233.5 -76h-18v-99h-108zM377 199v345h-21
q-99 0 -149.5 -48t-50.5 -124q0 -77 51 -125t149 -48h21zM485 544v-345h21q98 0 149 48t51 125q0 76 -50.5 124t-149.5 48h-21z" />
    <glyph glyph-name="afii10039" unicode="&#x425;" horiz-adv-x="572" 
d="M10 0l220 365l-193 335h120l136 -237l140 237h120l-202 -335l211 -365h-120l-153 268l-159 -268h-120z" />
    <glyph glyph-name="afii10040" unicode="&#x426;" horiz-adv-x="688" 
d="M80 0v700h108v-600h288v600h108v-600h90v-258h-100v158h-494z" />
    <glyph glyph-name="afii10041" unicode="&#x427;" horiz-adv-x="630" 
d="M442 0v287q-96 -8 -135 -8q-123 0 -178 44q-69 54 -69 170v207h108v-191q0 -80 37 -108q28 -22 113 -22q71 0 124 8v313h108v-700h-108z" />
    <glyph glyph-name="afii10042" unicode="&#x428;" horiz-adv-x="976" 
d="M80 0v700h108v-600h246v600h108v-600h246v600h108v-700h-816z" />
    <glyph glyph-name="afii10043" unicode="&#x429;" horiz-adv-x="1000" 
d="M80 0v700h108v-600h246v600h108v-600h246v600h108v-600h90v-258h-100v158h-806z" />
    <glyph glyph-name="afii10044" unicode="&#x42a;" horiz-adv-x="620" 
d="M168 0v600h-158v100h266v-282h78q112 0 176 -56q66 -58 66 -153q0 -46 -20.5 -93t-66.5 -78q-56 -38 -154 -38h-187zM276 318v-218h74q138 0 138 107q0 16 -4 31.5t-16.5 35.5t-42 32t-73.5 12h-76z" />
    <glyph glyph-name="afii10045" unicode="&#x42b;" horiz-adv-x="768" 
d="M80 0v700h108v-282h78q112 0 176 -56q66 -58 66 -153q0 -46 -20.5 -93t-66.5 -78q-56 -38 -153 -38h-188zM188 318v-218h74q138 0 138 107q0 16 -4 31.5t-16.5 35.5t-42 32t-73.5 12h-76zM580 700h108v-700h-108v700z" />
    <glyph glyph-name="afii10046" unicode="&#x42c;" horiz-adv-x="532" 
d="M80 0v700h108v-282h78q112 0 176 -56q66 -58 66 -153q0 -46 -20.5 -93t-66.5 -78q-56 -38 -153 -38h-188zM188 318v-218h74q138 0 138 107q0 16 -4 31.5t-16.5 35.5t-42 32t-73.5 12h-76z" />
    <glyph glyph-name="afii10047" unicode="&#x42d;" horiz-adv-x="648" 
d="M48 536v126q78 52 203 52q149 0 245 -92q104 -101 104 -271q0 -164 -104 -268q-97 -97 -248 -97q-113 0 -200 53v126q88 -79 192 -79q120 0 189 74q57 62 61 149h-348v100h345q-12 82 -64 138q-64 67 -176 67q-109 0 -199 -78z" />
    <glyph glyph-name="afii10048" unicode="&#x42e;" horiz-adv-x="1044" 
d="M188 422h108q16 108 90 187q97 105 256 105q154 0 254 -104.5t100 -260.5q0 -155 -100.5 -259t-253.5 -104q-174 0 -274 123q-73 90 -76 213h-104v-322h-108v700h108v-278zM642 86q106 0 174 74.5t68 189.5t-68 189.5t-174 74.5t-174 -74.5t-68 -189.5t68 -189.5
t174 -74.5z" />
    <glyph glyph-name="afii10049" unicode="&#x42f;" horiz-adv-x="557" 
d="M20 0l208 292q-62 7 -108 47q-60 51 -60 149q0 87 54 146q28 30 67 46t62.5 18t60.5 2h173v-700h-108v280h-25l-192 -280h-132zM369 600h-53q-88 0 -119 -32q-29 -31 -29 -80q0 -56 36 -84q31 -24 106 -24h59v220z" />
    <glyph glyph-name="afii10065" unicode="&#x430;" horiz-adv-x="552" 
d="M388 442h102v-442h-102v46q-51 -60 -134 -60q-97 0 -155.5 70t-58.5 165t58 164t157 69q86 0 133 -64v52zM270 362q-55 0 -89.5 -41t-34.5 -102q0 -59 33.5 -100t90.5 -41t90.5 40t33.5 102q0 68 -36 105t-88 37z" />
    <glyph glyph-name="afii10066" unicode="&#x431;" horiz-adv-x="552" 
d="M397 735h105q-11 -54 -48 -93t-91 -53l-71 -19q-28 -8 -41.5 -12.5t-35 -18.5t-36.5 -35q-34 -46 -36 -113h1q22 31 64 47t86 16q95 0 155 -64q63 -66 63 -167q0 -103 -67.5 -170t-168.5 -67q-100 0 -162 59q-74 70 -74 227q0 194 66 292q50 74 133 94l74 18
q38 9 57.5 22.5t26.5 36.5zM276 78q53 0 91.5 35.5t38.5 105.5q0 72 -38.5 107.5t-91.5 35.5t-91.5 -35.5t-38.5 -107.5q0 -70 38.5 -105.5t91.5 -35.5z" />
    <glyph glyph-name="afii10067" unicode="&#x432;" horiz-adv-x="458" 
d="M62 442h173q67 0 101 -26q40 -32 40 -85q0 -61 -52 -86q37 -8 60 -30q34 -31 34 -85q0 -63 -48 -101q-38 -29 -102 -29h-206v442zM164 270h53q27 0 41 9q20 13 20 36q0 22 -18 34q-13 9 -45 9h-51v-88zM164 84h77q35 0 54 13q21 16 21 39q0 24 -20 38q-16 12 -52 12h-80
v-102z" />
    <glyph glyph-name="afii10068" unicode="&#x433;" horiz-adv-x="340" 
d="M62 0v442h270v-92h-168v-350h-102z" />
    <glyph glyph-name="afii10069" unicode="&#x434;" horiz-adv-x="510" 
d="M104 442h332v-350h66v-218h-94v126h-310v-126h-94v218q55 5 82 58q18 37 18 117v175zM334 92v258h-132v-122q0 -96 -52 -136h184z" />
    <glyph glyph-name="afii10070" unicode="&#x435;" horiz-adv-x="506" 
d="M380 163l86 -48q-25 -46 -58 -75q-61 -54 -154 -54q-85 0 -149.5 60t-64.5 172q0 107 58 171.5t155 64.5q113 0 168 -81q41 -61 41 -161v-16h-316q1 -56 37.5 -87t81.5 -31q39 0 70 24q28 21 45 61zM152 280h205q-9 38 -36.5 60t-65.5 22q-37 0 -65 -22.5t-38 -59.5z" />
    <glyph glyph-name="afii10072" unicode="&#x436;" horiz-adv-x="654" 
d="M276 442h102v-164l134 164h124l-172 -202l188 -240h-128l-146 196v-196h-102v196l-146 -196h-128l188 240l-172 202h124l134 -164v164z" />
    <glyph glyph-name="afii10073" unicode="&#x437;" horiz-adv-x="458" 
d="M131 328l-66 58q26 28 57 44q44 24 107 24q74 0 113 -31q44 -35 44 -88q0 -65 -60 -90q33 -7 57 -28q35 -31 35 -79q0 -74 -62 -117q-50 -35 -127 -35q-79 0 -130 37q-35 25 -59 68l82 42q12 -28 35 -44q26 -19 68 -19q41 0 62 15q25 17 25 50q0 30 -20 43q-17 12 -59 12
h-53v84h46q30 0 44 10q18 12 18 37q0 24 -19 38q-18 11 -45 11q-34 0 -59 -14q-19 -10 -34 -28z" />
    <glyph glyph-name="afii10074" unicode="&#x438;" horiz-adv-x="530" 
d="M62 442h102v-251l304 291v-482h-102v257l-304 -291v476z" />
    <glyph glyph-name="afii10075" unicode="&#x439;" horiz-adv-x="530" 
d="M62 442h102v-251l304 291v-482h-102v257l-304 -291v476zM96 664l84 24q19 -68 86 -68t86 68l84 -24q-16 -54 -64 -89t-106 -35t-106 35t-64 89z" />
    <glyph glyph-name="afii10076" unicode="&#x43a;" horiz-adv-x="460" 
d="M62 442h102v-162l149 162h134l-192 -193l203 -249h-130l-164 204v-204h-102v442z" />
    <glyph glyph-name="afii10077" unicode="&#x43b;" horiz-adv-x="490" 
d="M428 442v-442h-102v350h-132v-178q0 -81 -41 -127q-42 -47 -119 -47q-8 0 -26 2v92q12 -2 19 -2q34 0 54 22q15 17 15 58v272h332z" />
    <glyph glyph-name="afii10078" unicode="&#x43c;" horiz-adv-x="608" 
d="M14 0l107 482l183 -336l183 336l107 -482h-104l-45 222l-141 -256l-141 256l-45 -222h-104z" />
    <glyph glyph-name="afii10079" unicode="&#x43d;" horiz-adv-x="512" 
d="M62 0v442h102v-164h184v164h102v-442h-102v186h-184v-186h-102z" />
    <glyph glyph-name="afii10080" unicode="&#x43e;" horiz-adv-x="552" 
d="M276 454q101 0 168.5 -66.5t67.5 -167.5t-67.5 -167.5t-168.5 -66.5t-168.5 66.5t-67.5 167.5t67.5 167.5t168.5 66.5zM276 78q53 0 91.5 35.5t38.5 105.5q0 72 -38.5 107.5t-91.5 35.5t-91.5 -35.5t-38.5 -107.5q0 -70 38.5 -105.5t91.5 -35.5z" />
    <glyph glyph-name="afii10081" unicode="&#x43f;" horiz-adv-x="508" 
d="M62 442h384v-442h-102v350h-180v-350h-102v442z" />
    <glyph glyph-name="afii10082" unicode="&#x440;" horiz-adv-x="552" 
d="M164 442v-48q50 60 134 60q89 0 151.5 -64t62.5 -168t-65 -170t-148 -66q-17 0 -36 4t-48.5 19.5t-50.5 41.5v-261h-102v652h102zM283 362q-51 0 -88 -38t-37 -105q0 -60 33 -100.5t92 -40.5q56 0 89.5 41t33.5 102q0 66 -36.5 103.5t-86.5 37.5z" />
    <glyph glyph-name="afii10083" unicode="&#x441;" horiz-adv-x="438" 
d="M406 422v-134q-21 34 -55.5 54t-72.5 20q-53 0 -92.5 -38t-39.5 -104q0 -60 35.5 -101t95.5 -41q79 0 129 75v-134q-57 -33 -122 -33q-114 0 -181 68q-63 63 -63 164q0 108 72 176q64 60 166 60q75 0 128 -32z" />
    <glyph glyph-name="afii10084" unicode="&#x442;" horiz-adv-x="378" 
d="M138 0v350h-130v92h362v-92h-130v-350h-102z" />
    <glyph glyph-name="afii10085" unicode="&#x443;" horiz-adv-x="506" 
d="M49 -210l154 292l-197 360h124l130 -249l124 249h116l-335 -652h-116z" />
    <glyph glyph-name="afii10086" unicode="&#x444;" horiz-adv-x="698" 
d="M298 -210v203q-112 -2 -182 57q-74 62 -74 171q0 107 73 170q68 58 183 58v251h102v-251q115 0 183 -58q73 -63 73 -170q0 -109 -74 -171q-70 -59 -182 -57v-203h-102zM298 85v272q-61 0 -95 -23q-55 -35 -55 -113q0 -72 52 -110q41 -28 98 -26zM400 357v-272
q57 -2 98 26q52 38 52 110q0 78 -55 113q-35 23 -95 23z" />
    <glyph glyph-name="afii10087" unicode="&#x445;" horiz-adv-x="520" 
d="M263 165l-131 -165h-126l195 239l-157 203h122l97 -129l99 129h126l-163 -203l189 -239h-124z" />
    <glyph glyph-name="afii10088" unicode="&#x446;" horiz-adv-x="524" 
d="M62 0v442h102v-350h176v350h102v-350h74v-218h-94v126h-360z" />
    <glyph glyph-name="afii10089" unicode="&#x447;" horiz-adv-x="466" 
d="M302 0v171q-49 -9 -91 -9q-75 0 -116 32q-43 34 -43 106v142h102v-121q0 -46 27 -61q18 -10 51 -10q37 0 70 11v181h102v-442h-102z" />
    <glyph glyph-name="afii10090" unicode="&#x448;" horiz-adv-x="726" 
d="M62 0v442h102v-350h148v350h102v-350h148v350h102v-442h-602z" />
    <glyph glyph-name="afii10091" unicode="&#x449;" horiz-adv-x="746" 
d="M62 0v442h102v-350h148v350h102v-350h148v350h102v-350h74v-218h-94v126h-582z" />
    <glyph glyph-name="afii10092" unicode="&#x44a;" horiz-adv-x="456" 
d="M8 442h196v-157h60q29 0 46 -1.5t43 -12t45 -31.5q34 -37 34 -96q0 -67 -40 -106q-19 -18 -42.5 -27t-39 -10t-47.5 -1h-161v350h-94v92zM204 88h46q37 0 53 10q23 14 23 45q0 29 -22 44q-16 10 -53 10h-47v-109z" />
    <glyph glyph-name="afii10093" unicode="&#x44b;" horiz-adv-x="602" 
d="M62 442h102v-157h60q28 0 45 -1.5t44.5 -12t45.5 -31.5q33 -37 33 -96q0 -70 -40 -107q-18 -17 -42 -26t-40.5 -10t-46.5 -1h-161v442zM164 88h46q37 0 53 10q23 14 23 45q0 29 -22 44q-16 10 -53 10h-47v-109zM438 442h102v-442h-102v442z" />
    <glyph glyph-name="afii10094" unicode="&#x44c;" horiz-adv-x="416" 
d="M62 442h102v-157h60q28 0 45 -1.5t44.5 -12t45.5 -31.5q33 -37 33 -96q0 -70 -40 -107q-18 -17 -42 -26t-40.5 -10t-46.5 -1h-161v442zM164 88h46q37 0 53 10q23 14 23 45q0 29 -22 44q-16 10 -53 10h-47v-109z" />
    <glyph glyph-name="afii10095" unicode="&#x44d;" horiz-adv-x="446" 
d="M40 333v98q56 23 120 23q115 0 180.5 -65.5t65.5 -170.5q0 -101 -65.5 -166.5t-168.5 -65.5q-77 0 -132 26v98q54 -31 124 -31q48 0 85 27t45 77h-205v92h201q-10 41 -46.5 64t-80.5 23q-63 0 -123 -29z" />
    <glyph glyph-name="afii10096" unicode="&#x44e;" horiz-adv-x="730" 
d="M164 278h71q13 63 58 110q66 66 165 66q101 0 166.5 -66.5t65.5 -167.5q0 -102 -66 -168t-166 -66q-106 0 -170 71q-48 55 -54 129h-70v-186h-102v442h102v-164zM457 78q53 0 90 35t37 106q0 72 -37 107.5t-90 35.5q-54 0 -90.5 -35.5t-36.5 -107.5q0 -71 37 -106t90 -35
z" />
    <glyph glyph-name="afii10097" unicode="&#x44f;" horiz-adv-x="436" 
d="M8 0l139 175q-40 5 -70 32q-37 35 -37 93q0 64 40 102q42 40 129 40h165v-442h-102v163h-23l-121 -163h-120zM272 247v107h-63q-37 0 -54 -10q-23 -15 -23 -44t21 -43q16 -10 57 -10h62z" />
    <glyph glyph-name="afii10071" unicode="&#x451;" horiz-adv-x="506" 
d="M380 163l86 -48q-25 -46 -58 -75q-61 -54 -154 -54q-85 0 -149.5 60t-64.5 172q0 107 58 171.5t155 64.5q113 0 168 -81q41 -61 41 -161v-16h-316q1 -56 37.5 -87t81.5 -31q39 0 70 24q28 21 45 61zM152 280h205q-9 38 -36.5 60t-65.5 22q-37 0 -65 -22.5t-38 -59.5z
M104 624q0 27 19.5 46.5t46.5 19.5t46.5 -19.5t19.5 -46.5t-19.5 -46.5t-46.5 -19.5t-46.5 19.5t-19.5 46.5zM292 624q0 27 19.5 46.5t46.5 19.5t46.5 -19.5t19.5 -46.5t-19.5 -46.5t-46.5 -19.5t-46.5 19.5t-19.5 46.5z" />
    <glyph glyph-name="afii10099" unicode="&#x452;" horiz-adv-x="504" 
d="M62 0v564h-76v80h76v91h102v-91h210v-80h-210v-160q46 50 119 50q91 0 131 -60q28 -41 28 -123v-343q0 -88 -46 -123q-37 -29 -97 -29q-33 0 -67 10v88q20 -10 46 -10q36 0 51 23q11 20 11 63v311q0 21 -0.5 29.5t-5 22.5t-14.5 25q-20 24 -59 24q-51 0 -76 -38
q-21 -31 -21 -111v-213h-102z" />
    <glyph glyph-name="afii10100" unicode="&#x453;" horiz-adv-x="340" 
d="M62 0v442h270v-92h-168v-350h-102zM272 708l94 -48l-164 -152l-56 36z" />
    <glyph glyph-name="afii10101" unicode="&#x454;" horiz-adv-x="446" 
d="M406 425v-109q-52 46 -121 46q-46 0 -82.5 -23t-46.5 -64h201v-94h-204q6 -50 43.5 -76.5t88.5 -26.5q70 0 121 48v-108q-49 -32 -126 -32q-111 0 -177 68q-63 63 -63 165q0 107 72 175q65 60 169 60q72 0 125 -29z" />
    <glyph glyph-name="afii10102" unicode="&#x455;" horiz-adv-x="374" 
d="M320 367l-85 -45q-13 40 -49 40q-34 0 -34 -29q0 -12 7.5 -21t18 -15t33.5 -17q58 -25 84 -45q53 -39 53 -99q0 -70 -50 -110t-111 -40q-49 0 -91.5 28t-61.5 82l86 39q18 -57 73 -57q24 0 36.5 13t12.5 35q0 19 -10 31t-36 25q-6 3 -39.5 18.5t-48.5 24.5
q-27 17 -39.5 39t-12.5 58q0 56 36 94t102 38q89 0 126 -87z" />
    <glyph glyph-name="afii10103" unicode="&#x456;" horiz-adv-x="226" 
d="M62 442h102v-442h-102v442zM47 624q0 27 19.5 46.5t46.5 19.5t46.5 -19.5t19.5 -46.5t-19.5 -46.5t-46.5 -19.5t-46.5 19.5t-19.5 46.5z" />
    <glyph glyph-name="afii10104" unicode="&#x457;" horiz-adv-x="252" 
d="M75 442h102v-442h-102v442zM10 608q0 22 14 36t36 14t36 -14t14 -36t-14 -36t-36 -14t-36 14t-14 36zM142 608q0 22 14 36t36 14t36 -14t14 -36t-14 -36t-36 -14t-36 14t-14 36z" />
    <glyph glyph-name="afii10105" unicode="&#x458;" horiz-adv-x="226" 
d="M62 442h102v-652h-102v652zM47 624q0 27 19.5 46.5t46.5 19.5t46.5 -19.5t19.5 -46.5t-19.5 -46.5t-46.5 -19.5t-46.5 19.5t-19.5 46.5z" />
    <glyph glyph-name="afii10106" unicode="&#x459;" horiz-adv-x="680" 
d="M428 442v-157h60q28 0 45 -1.5t44.5 -12t45.5 -31.5q33 -37 33 -96q0 -70 -40 -107q-18 -17 -42 -26t-40.5 -10t-46.5 -1h-161v350h-132v-178q0 -81 -41 -127q-42 -47 -119 -47q-8 0 -26 2v92q12 -2 19 -2q34 0 54 22q15 17 15 58v272h332zM428 88h46q37 0 53 10
q23 14 23 45q0 29 -22 44q-16 10 -53 10h-47v-109z" />
    <glyph glyph-name="afii10107" unicode="&#x45a;" horiz-adv-x="702" 
d="M62 0v442h102v-157h184v157h102v-157h60q28 0 45 -1.5t44.5 -12t45.5 -31.5q33 -37 33 -96q0 -70 -40 -107q-18 -17 -42 -26t-40.5 -10t-46.5 -1h-161v197h-184v-197h-102zM450 88h46q37 0 53 10q23 14 23 45q0 29 -22 44q-16 10 -53 10h-47v-109z" />
    <glyph glyph-name="afii10108" unicode="&#x45b;" horiz-adv-x="504" 
d="M62 0v564h-76v80h76v91h102v-91h210v-80h-210v-160q46 50 119 50q91 0 131 -60q28 -41 28 -123v-271h-102v261q0 21 -0.5 29.5t-5 22.5t-14.5 25q-20 24 -59 24q-51 0 -76 -38q-21 -31 -21 -111v-213h-102z" />
    <glyph glyph-name="afii10109" unicode="&#x45c;" horiz-adv-x="460" 
d="M62 442h102v-162l149 162h134l-192 -193l203 -249h-130l-164 204v-204h-102v442zM303 708l94 -48l-164 -152l-56 36z" />
    <glyph glyph-name="afii10110" unicode="&#x45e;" horiz-adv-x="506" 
d="M49 -210l154 292l-197 360h124l130 -249l124 249h116l-335 -652h-116zM342 688l84 -24q-16 -54 -64 -89t-106 -35t-106 35t-64 89l84 24q19 -68 86 -68t86 68z" />
    <glyph glyph-name="afii10193" unicode="&#x45f;" horiz-adv-x="504" 
d="M62 0v442h102v-350h176v350h102v-442h-143v-150h-94v150h-143z" />
    <glyph glyph-name="afii10050" unicode="&#x490;" horiz-adv-x="444" 
d="M80 700h250v158h100v-258h-242v-600h-108v700z" />
    <glyph glyph-name="afii10098" unicode="&#x491;" horiz-adv-x="340" 
d="M62 0v442h176v126h94v-218h-168v-350h-102z" />
    <glyph glyph-name="endash" unicode="&#x2013;" horiz-adv-x="604" 
d="M50 176v92h504v-92h-504z" />
    <glyph glyph-name="emdash" unicode="&#x2014;" horiz-adv-x="834" 
d="M50 176v92h734v-92h-734z" />
    <glyph glyph-name="quoteleft" unicode="&#x2018;" horiz-adv-x="300" 
d="M250 700l-106 -264l-94 34l130 260z" />
    <glyph glyph-name="quoteright" unicode="&#x2019;" horiz-adv-x="350" 
d="M50 466l106 264l94 -34l-130 -260z" />
    <glyph glyph-name="quotesinglbase" unicode="&#x201a;" horiz-adv-x="350" 
d="M50 -134l106 264l94 -34l-130 -260z" />
    <glyph glyph-name="quotedblleft" unicode="&#x201c;" horiz-adv-x="480" 
d="M430 700l-108 -264l-90 34l130 260zM248 700l-108 -264l-90 34l130 260z" />
    <glyph glyph-name="quotedblright" unicode="&#x201d;" horiz-adv-x="530" 
d="M50 466l108 264l90 -34l-130 -260zM232 466l108 264l90 -34l-130 -260z" />
    <glyph glyph-name="quotedblbase" unicode="&#x201e;" horiz-adv-x="530" 
d="M50 -134l108 264l90 -34l-130 -260zM232 -134l108 264l90 -34l-130 -260z" />
    <glyph glyph-name="dagger" unicode="&#x2020;" horiz-adv-x="586" 
d="M242 572v163h102v-163h146v-96h-146v-686h-102v686h-146v96h146z" />
    <glyph glyph-name="daggerdbl" unicode="&#x2021;" horiz-adv-x="586" 
d="M242 572v163h102v-163h146v-96h-146v-276h146v-96h-146v-314h-102v314h-146v96h146v276h-146v96h146z" />
    <glyph glyph-name="bullet" unicode="&#x2022;" horiz-adv-x="680" 
d="M194 357q0 60 43 103t103 43t103 -43t43 -103t-43 -103t-103 -43t-103 43t-43 103z" />
    <glyph glyph-name="ellipsis" unicode="&#x2026;" horiz-adv-x="780" 
d="M64 52q0 27 19.5 46.5t46.5 19.5t46.5 -19.5t19.5 -46.5t-19.5 -46.5t-46.5 -19.5t-46.5 19.5t-19.5 46.5zM324 52q0 27 19.5 46.5t46.5 19.5t46.5 -19.5t19.5 -46.5t-19.5 -46.5t-46.5 -19.5t-46.5 19.5t-19.5 46.5zM584 52q0 27 19.5 46.5t46.5 19.5t46.5 -19.5
t19.5 -46.5t-19.5 -46.5t-46.5 -19.5t-46.5 19.5t-19.5 46.5z" />
    <glyph glyph-name="perthousand" unicode="&#x2030;" horiz-adv-x="1256" 
d="M198 19l400 693l50 -31l-400 -693zM202 378q-62 0 -115.5 44.5t-53.5 119.5t53.5 119.5t115.5 44.5q69 0 119 -48.5t50 -115.5t-50 -115.5t-119 -48.5zM202 632q-40 0 -63.5 -29t-23.5 -61q0 -33 23.5 -61.5t63.5 -28.5q39 0 63 28.5t24 61.5t-24 61.5t-63 28.5zM644 -6
q-62 0 -115.5 44.5t-53.5 119.5t53.5 119.5t115.5 44.5q69 0 119 -48.5t50 -115.5t-50 -115.5t-119 -48.5zM644 248q-40 0 -63.5 -29t-23.5 -61q0 -33 23.5 -61.5t63.5 -28.5q39 0 63 28.5t24 61.5t-24 61.5t-63 28.5zM1054 -6q-62 0 -115.5 44.5t-53.5 119.5t53.5 119.5
t115.5 44.5q69 0 119 -48.5t50 -115.5t-50 -115.5t-119 -48.5zM1054 248q-40 0 -63.5 -29t-23.5 -61q0 -33 23.5 -61.5t63.5 -28.5q39 0 63 28.5t24 61.5t-24 61.5t-63 28.5z" />
    <glyph glyph-name="guilsinglleft" unicode="&#x2039;" horiz-adv-x="336" 
d="M146 228l136 -176l-70 -50l-172 226l172 226l70 -50z" />
    <glyph glyph-name="guilsinglright" unicode="&#x203a;" horiz-adv-x="336" 
d="M190 228l-136 176l70 50l172 -226l-172 -226l-70 50z" />
    <glyph glyph-name="Euro" unicode="&#x20ac;" 
d="M545 670v-106q-58 54 -158 54q-77 0 -122 -40.5t-57 -110.5h298l-29 -82h-281q0 -4 -0.5 -14.5t-0.5 -16.5t0.5 -18.5t0.5 -16.5h256l-29 -81h-215q13 -74 58.5 -114.5t121.5 -40.5q98 0 157 53v-107q-54 -42 -170 -42q-112 0 -181.5 62.5t-89.5 188.5h-81l29 81h44
q-2 18 -2 35q0 6 0.5 16.5t0.5 14.5h-72l29 82h51q20 114 87 180.5t185 66.5q55 0 101 -13.5t69 -30.5z" />
    <glyph glyph-name="afii61352" unicode="&#x2116;" horiz-adv-x="1106" 
d="M188 0h-108v746l465 -506v460h108v-742l-465 506v-464zM895 370q-69 0 -119 49.5t-50 115.5q0 68 50 116.5t119 48.5t119 -49t50 -116q0 -66 -49.5 -115.5t-119.5 -49.5zM895 624q-40 0 -63.5 -27t-23.5 -62t23.5 -62t63.5 -27q41 0 64 27t23 62t-23 62t-64 27zM747 213
v84h296v-84h-296z" />
    <glyph glyph-name="trademark" unicode="&#x2122;" horiz-adv-x="744" 
d="M250 632h-88v-332h-74v332h-88v68h250v-68zM348 300h-75l86 436l132 -294l134 294l85 -436h-75l-37 218l-107 -224l-107 224z" />
    <glyph glyph-name="hyphenminus" horiz-adv-x="332" 
d="M40 170v106h252v-106h-252z" />
    <glyph glyph-name="accent" horiz-adv-x="2" 
d="M-190 708l94 -48l-164 -152l-56 36z" />
    <glyph glyph-name="Accent" horiz-adv-x="2" 
d="M-362 762l-50 40l146 148l90 -62z" />
    </font>
</defs>
</svg>
